<svg xmlns="http://www.w3.org/2000/svg" xml:space="preserve" version="1.0" viewBox="5.5 -3.5 64 64"><path d="M37.443-3.5c-8.839 0-16.341 3.085-22.513 9.258C8.645 12.158 5.5 19.739 5.5 28.5c0 8.762 3.145 16.284 9.43 22.57 6.36 6.286 13.864 9.43 22.513 9.43 8.8 0 16.436-3.182 22.912-9.545C66.451 44.975 69.5 37.491 69.5 28.5c0-8.952-3.106-16.532-9.314-22.742C54.014-.414 46.43-3.5 37.443-3.5zm.114 5.771c7.238 0 13.41 2.553 18.513 7.657 5.103 5.106 7.657 11.294 7.657 18.57 0 7.391-2.514 13.506-7.543 18.344-5.295 5.22-11.506 7.828-18.63 7.828-7.161 0-13.332-2.59-18.513-7.772-5.18-5.178-7.77-11.31-7.77-18.396 0-7.047 2.609-13.238 7.829-18.572C24.129 4.826 30.28 2.27 37.557 2.27zM37.5 7.814c-2.973 0-4.457 1.506-4.457 4.514 0 2.971 1.486 4.457 4.457 4.457s4.457-1.486 4.457-4.457c0-3.01-1.484-4.514-4.457-4.514zM30.93 18.5c-.57 0-1.056.2-1.457.6-.4.4-.6.885-.6 1.457v13.086h3.656v15.54h9.944v-15.54h3.656V20.557c0-.571-.21-1.057-.627-1.457-.418-.4-.897-.6-1.43-.6H30.93z"/></svg>