<svg xmlns="http://www.w3.org/2000/svg" xml:space="preserve" version="1.0" viewBox="5.5 -3.5 64 64"><path d="M37.442-3.499c-8.876 0-16.362 3.106-22.457 9.314C11.9 8.901 9.548 12.397 7.93 16.302A31.544 31.544 0 0 0 5.5 28.5c0 4.267.8 8.324 2.4 12.172 1.6 3.848 3.933 7.305 7 10.37 3.067 3.067 6.535 5.41 10.4 7.028 3.868 1.621 7.915 2.428 12.143 2.428 4.228 0 8.324-.817 12.285-2.455 3.963-1.638 7.506-4.003 10.63-7.088 3.007-2.933 5.285-6.315 6.828-10.143 1.54-3.827 2.312-7.931 2.312-12.312 0-4.343-.783-8.447-2.344-12.314C65.593 12.32 63.308 8.88 60.3 5.872 54.015-.375 46.393-3.499 37.442-3.499zm.116 5.771c7.238 0 13.428 2.572 18.574 7.715 2.474 2.478 4.36 5.297 5.652 8.46 1.295 3.161 1.944 6.513 1.944 10.056 0 7.354-2.495 13.468-7.485 18.344-2.592 2.514-5.494 4.436-8.713 5.771a25.827 25.827 0 0 1-9.972 1.998c-3.467 0-6.783-.656-9.944-1.97-3.164-1.316-6-3.22-8.513-5.715-2.515-2.495-4.448-5.333-5.801-8.516a25.045 25.045 0 0 1-2.03-9.912c0-3.467.676-6.792 2.03-9.973 1.352-3.18 3.286-6.046 5.8-8.6 4.992-5.103 11.144-7.658 18.458-7.658zm-8.916 16.29c-2.706 0-4.944.895-6.715 2.685-1.771 1.791-2.656 4.21-2.656 7.258 0 3.123.874 5.56 2.626 7.312 1.752 1.754 4.06 2.63 6.916 2.63 1.791 0 3.43-.448 4.915-1.344 1.486-.895 2.648-2.123 3.486-3.686l-3.943-2c-.763 1.828-2.077 2.742-3.944 2.742-1.41 0-2.477-.514-3.201-1.543-.723-1.029-1.086-2.4-1.086-4.113 0-3.772 1.431-5.656 4.287-5.656.572 0 1.19.19 1.858.57.666.381 1.227 1.049 1.685 2l4.287-2.229c-1.715-3.086-4.552-4.628-8.515-4.626zm18.513 0c-2.705 0-4.943.895-6.713 2.685-1.773 1.791-2.658 4.21-2.658 7.258 0 3.123.868 5.56 2.604 7.312 1.732 1.754 4.043 2.63 6.94 2.63a9.235 9.235 0 0 0 4.857-1.344c1.484-.895 2.666-2.123 3.54-3.686l-4-2c-.76 1.828-2.076 2.742-3.94 2.742-1.413 0-2.479-.514-3.202-1.543-.723-1.029-1.086-2.4-1.086-4.113 0-3.772 1.43-5.656 4.287-5.656.607 0 1.246.19 1.914.57.666.381 1.23 1.049 1.688 2l4.228-2.229c-1.675-3.086-4.497-4.628-8.459-4.626z"/></svg>