<svg xmlns="http://www.w3.org/2000/svg" xml:space="preserve" version="1.0" viewBox="5.5 -3.5 64 64"><path d="M37.441-3.5c-8.838 0-16.34 3.087-22.511 9.258-6.285 6.4-9.43 13.98-9.43 22.742 0 8.725 3.145 16.229 9.43 22.516C21.253 57.339 28.755 60.5 37.44 60.5c8.8 0 16.44-3.181 22.914-9.543C66.452 44.975 69.5 37.492 69.5 28.5c0-8.991-3.106-16.572-9.314-22.744C54.014-.415 46.43-3.5 37.44-3.5zm.116 5.715c7.274 0 13.448 2.57 18.515 7.713 5.104 5.03 7.657 11.221 7.657 18.574 0 2.324-.266 4.607-.801 6.855l-16.399-7.312-5.142-2.285-2.801-1.258-4.057-1.83c-.19-.267-.285-.534-.285-.8 0-.915.391-1.561 1.172-1.942.78-.38 1.665-.573 2.656-.573 1.867 0 3.694.628 5.487 1.885l4.171-4.285c-2.4-1.828-5.066-2.818-8-2.97V9.07h-3.714v4.916c-1.982.115-3.718.677-5.202 1.686-1.487 1.009-2.496 2.351-3.029 4.027l-12.228-5.484A30.624 30.624 0 0 1 19.1 9.928c5.029-5.143 11.18-7.713 18.457-7.713zM12.699 19.87l16.344 7.313 5.086 2.228 3.771 1.715 3.084 1.314c.571.495.86 1.143.86 1.944 0 1.145-.392 1.963-1.172 2.457-.782.497-1.726.744-2.83.744-2.667 0-5.05-.972-7.145-2.914L26.3 39.129c2.932 2.515 6.17 3.79 9.713 3.826v4.916h3.715v-4.916c2.209-.189 4.122-.923 5.744-2.2 1.618-1.274 2.635-2.92 3.056-4.94l12.055 5.37c-1.066 1.946-2.53 3.812-4.396 5.602-5.221 5.221-11.43 7.828-18.631 7.828-7.123 0-13.295-2.57-18.514-7.715-5.18-5.18-7.77-11.312-7.77-18.398 0-3.124.476-6.003 1.428-8.63z"/></svg>