<svg xmlns="http://www.w3.org/2000/svg" xml:space="preserve" version="1.0" viewBox="5.5 -3.5 64 64"><path d="M37.443-3.5c-8.8 0-16.304 3.105-22.513 9.316-6.285 6.4-9.43 13.963-9.43 22.686 0 8.763 3.145 16.283 9.43 22.568 6.36 6.286 13.864 9.43 22.513 9.43 8.836 0 16.475-3.162 22.912-9.486C66.451 44.957 69.5 37.454 69.5 28.5c0-8.952-3.106-16.514-9.314-22.686C53.975-.396 46.394-3.5 37.443-3.5zm.114 5.771c7.275 0 13.446 2.57 18.513 7.715 5.103 5.028 7.657 11.201 7.657 18.514 0 7.353-2.514 13.468-7.543 18.344-5.295 5.219-11.506 7.828-18.63 7.828-7.161 0-13.332-2.59-18.513-7.772-5.18-5.143-7.77-11.275-7.77-18.4 0-7.046 2.609-13.218 7.829-18.514 5.029-5.143 11.18-7.715 18.457-7.715zm-.23 9.372c-3.659 0-6.761 1.076-9.313 3.228-2.553 2.152-4.134 5.19-4.743 9.113H20.76l6.342 6.342 6.341-6.342h-2.341c.533-3.77 2.93-5.656 7.199-5.656 2.364 0 4.171.885 5.43 2.656 1.255 1.772 1.884 4.354 1.884 7.745 0 3.237-.685 5.827-2.058 7.769-1.371 1.942-3.182 2.914-5.428 2.914-4.496 0-6.84-1.942-7.03-5.828h-8.058c.534 4 2.113 7.086 4.742 9.258 2.628 2.172 5.752 3.256 9.371 3.256 4.916 0 8.914-1.63 12.002-4.885 3.084-3.256 4.627-7.343 4.627-12.258 0-5.066-1.486-9.219-4.457-12.457-2.97-3.236-6.973-4.855-12-4.855z"/></svg>